<?xml version='1.0' encoding='utf-8'?>
<svg xmlns="http://www.w3.org/2000/svg" id="Layer_1" data-name="Layer 1" viewBox="0 0 2057.15 1684.8"><title>cat</title><path d="M393.14,1747.94c34.5,7.54,69.26,10.42,104.36,5.09,21.55-3.27,47-24,46.47-25.18,8.28-5,16.09-12.85,25-14.33,15.85-2.65,28.68-8.54,39.54-20.17,34.34-36.77,70.94-70.83,114.45-96.89,9.24-5.54,86.38-56,107.12-86.52,5.24-7.7,14.6-12.68,22.33-18.57,11.33-8.65,52-45.59,57.82-59.66,6.21-15,23.24-26.5,37.37-37.09,15.53-11.64,35.25-17.05,48.83-32.37,2.84-3.2,13.3-4.68,15.78-2.3,13.91,13.36,31.24,8.43,47.1,10.73,22.58,3.28,45.76,3.94,67.72,9.52,16.9,4.29,31.23,15.16,40.4,31.92,11,20.11,59.35,105,70.63,128.29,12.91,26.7,45.7,108.16,48.41,122.21,1.51,7.8-2.84,11.7-11.55,14-18.74,5-37.56,14.36-39.81,35.31-1.5,13.93,6.08,28.87,10,43.26.33,1.23,3.36,2.21,5.24,2.46,35.41,4.64,70.67,12,106.68,5,10.39-2,14.44-6.46,17.52-17.88,9.28-34.42-1-67.86-.92-101.69,0-10.08-7.89-72.22-13.21-93.27-6.5-25.77-35.31-184.24-36.67-200.5,11.76-3,22.55-5.71,33.3-8.57,2.77-.74,6.39-1.19,8-3.12,11.05-13.57,213.93-2.16,226.24-.32,17,2.55,66.71,9.8,74.5,10.24,9.74.55,20.59,1.43,29.21-2.11,22-9.06,54,3,62.18,29.59,7.1,23,16.42,45.54,33.41,64.11,14.57,15.92,28,33,41,50.19,12.34,16.35,23.55,33.57,35.12,50.5,6.43,9.4,13.34,18.59,18.69,28.59,8.8,16.45,5.38,32.39-6.17,46-17.29,20.41-35.44,40.09-53.29,60-3.57,4-7.93,7.36-11,11.66-8.86,12.26-19.31,18.49-35,13.12-4.21-1.44-10-.33-14.42,1.31-18.93,7-35.14,18.37-45.46,35.74-3.51,5.9-3.5,15.44-1.87,22.57,5.7,24.88,9.71,28.92,35.74,28.71,34.5-.27,69-2.55,103.44-4.89,8.67-.59,88.87-99.5,92.46-102,28.27-19.28,41.77-49.38,56.78-78.08,11-21.11,20.15-43.25,29.49-65.2,1.95-4.58,2.1-10.49,1.36-15.54-3.66-24.94-8.34-49.73-11.63-74.71-.8-6.08-9.78-72-2.62-76.56,3.23-2.07,8.83-2.38,12.68-1.24,29.57,8.77,58.95,18.2,88.45,27.21,23.11,7.05,45.92,16.5,69.59,19.91,25.4,3.66,46.83,15.29,65.59,29.51,29,21.94,42.6,55.56,54.09,89.37,6.74,19.83,14.64,39.35,19.92,59.56,3.59,13.73,10.88,39.69,11,54,.15,22.64,15.69,44.71,39.86,66.63,8.37,7.59,24.74-7.78,36-17.12,19.32-16,13.83-35,14.8-62.07.16-4.33-34.93-89-57.55-161.26-13.11-41.86-15.46-79.51-21.4-94.87-8-20.71-30.19-68.68-33.55-70.43-19.22-10-35-23.15-47.33-41.6-7.24-10.83-20.08-17.75-28.94-27.72-5.41-6.09-10.53-14.38-11.37-22.16-1.44-13.32-24-34.61-24.57-38.15-3-18.09-6-36.24-7.64-54.49-1-11.43-3-49.53-4.88-57-.78-3.18-2.84-6.89-1.92-9.52,7.63-21.86-6.44-38.51-13.8-56.32-9.21-22.29-22.25-43.12-23.74-68-.55-9.23-.2-18.51-.48-27.76-.11-3.63.05-7.64-1.38-10.8-12.53-27.62-.57-50.71,13.46-73.22,17.29-27.77,35.63-54.9,52.42-83,8.11-13.55,13.57-28.67,20.49-42.95a129.89,129.89,0,0,1,10.2-18.17c14.61-20.78,24.24-43.59,31.32-68,3.71-12.8,12.5-24.09,16.44-36.85,8.58-27.79,15.64-56.06,23-84.22,1-3.84,39.15-157.76-68.56-301.4-3.84-5.12-12.52-7.15-19.08-10.43-2.31-1.16-5.88-1.12-7.12-2.87-20.38-28.85-114.89-74.66-122.62-68-1.89,1.62-6.75,1.83-9.1.57-28.74-15.42-109.42,7.19-142.27,40-24.41,24.37-21,34-28.29,59-4.82,16.45-7,41.69,2.11,49.95,13,11.76,36.57,11.64,53.92-.92,6.64-4.81,12-11.35,18.5-16.37,23.19-17.91,49.62-29.38,78-18.58,19.42,7.39,37.78,20.46,53.29,34.63,30.5,27.88,48.65,63.21,50.6,105.31.87,18.91,2.51,38.29-.45,56.78-6.67,41.79-13,84.06-25.08,124.43-11.42,38.06-28.21,74.91-46.42,110.36-8.82,17.17-25.83,30.35-40,44.45-9.31,9.25-20.9,16.2-30.26,25.41-28.35,27.9-62.86,31.87-98.91,23.93-103.89-22.89-208.39-23.75-313.53-12.19-52,5.72-104.26,9.36-156.08,16.34-75.94,10.24-294.27,43-327.72,47.49a10.25,10.25,0,0,0-3.61.8c-34.26,19.29-70.87,15.85-106.42,7.59-31.93-7.41-65.8-10.19-93.92-30.38-26.91-19.33-55.38-36.64-81.15-57.34-20.45-16.43-41-30.76-66-40-38.43-14.27-70.86-37.93-96.68-70.35-11.27-14.15-23.62-27.46-35.84-40.82-4.8-5.25-10.58-9.6-15.91-14.36l-12.51,16.77c-10.55-1.9-15.64,1.16-16,14.39-.41,15.57.87,31.26,2.52,46.78,2.06,19.5-1.75,33.7-22.54,42.19-24.83,10.15-47.47,24.87-63.73,47.23A179.55,179.55,0,0,0,520.07,741c-12.82,23.88-24.69,48.13-46.38,66.08-8.69,7.19-15.58,17.16-21.34,27-3,5.09-4.06,13.61-1.92,19,5.85,14.65,13.72,28.5,21.1,42.51,2.28,4.32,6.28,7.79,8.25,12.2,13.14,29.48,43.78,44.74,74.25,38.42,32.42-6.73,60.75,2.66,84.58,25.61,2.36,2.27,4.53,6.53,7,6.65,21.56,1.06,42.29,49.37,46.19,56.82,7.24,13.86,26,56.82,25.93,64.78-.25,17.19-2,34.36-2.3,51.56-.44,24.22-5.76,119.58-7.12,143.12-1,17.45,1,35.07.32,52.56-.25,6.49-4.08,12.9-6.56,19.24-6.38,16.31-13.11,32.49-19.34,48.86-12.25,32.19-82.41,124.22-97.74,142.51-9.26,11-79.34,87.27-108.75,110.27-7.69,6-21.32,8.33-31.25,6.62-12.9-2.21-23.2-.84-33.88,5.9-5.46,3.44-12.56,4.16-17.92,7.9C375.4,1700.95,370.45,1729.82,393.14,1747.94Z" transform="translate(-377.92 -102.84)"/></svg>